<svg version="1.1" id="Слой_1" xmlns="http://www.w3.org/2000/svg" xmlns:xlink="http://www.w3.org/1999/xlink" x="0px" y="0px" width="13px" height="992.5px" viewBox="0 0 13 992.5" enable-background="new 0 0 13 992.5" xml:space="preserve">
<g>
  <path fill="#F7A93C" d="M2.5,3.999C2.5,1.793,4.288,0,6.496,0S10.5,1.793,10.5,3.999c0,2.197-1.796,3.999-4.004,3.999
    S2.5,6.196,2.5,3.999z"/>
  <path fill="#C3D884" d="M1.5,24.887c0-2.758,2.235-4.999,4.996-4.999c2.759,0,5.004,2.24,5.004,4.999
    c0,2.746-2.245,4.999-5.004,4.999C3.735,29.886,1.5,27.634,1.5,24.887z"/>
  <path fill="#F7A93B" d="M12.77,103.821c0,3.459-2.81,6.268-6.27,6.268s-6.271-2.809-6.271-6.268c0-3.458,2.811-6.268,6.271-6.268
    S12.77,100.362,12.77,103.821z"/>
  <path fill="#59A8DD" d="M1.555,122.504c0-2.729,2.211-4.947,4.94-4.947c2.729,0,4.95,2.219,4.95,4.947
    c0,2.72-2.221,4.948-4.95,4.948C3.766,127.452,1.555,125.223,1.555,122.504z"/>
  <path fill="#C3D884" d="M2,142.256c0-2.479,2.012-4.499,4.497-4.499c2.481,0,4.503,2.02,4.503,4.499
    c0,2.473-2.021,4.498-4.503,4.498C4.012,146.754,2,144.728,2,142.256z"/>
  <path fill="#F7A93B" d="M12.77,220.786c0,3.458-2.81,6.269-6.27,6.269s-6.271-2.811-6.271-6.269s2.811-6.268,6.271-6.268
    S12.77,217.328,12.77,220.786z"/>
  <path fill="#59A8DD" d="M1.555,242.555c0-2.729,2.211-4.95,4.94-4.95c2.729,0,4.95,2.221,4.95,4.95c0,2.718-2.221,4.946-4.95,4.946
    C3.766,247.502,1.555,245.272,1.555,242.555z"/>
  <path fill="#D81D6D" d="M2,262.97c0-2.479,2.012-4.498,4.497-4.498c2.481,0,4.503,2.019,4.503,4.498
    c0,2.473-2.021,4.499-4.503,4.499C4.012,267.469,2,265.442,2,262.97z"/>
</g>
<path fill="#59A8DD" d="M0.999,346.579c0-3.032,2.46-5.499,5.494-5.499c3.036,0,5.507,2.467,5.507,5.499
  c0,3.021-2.471,5.498-5.507,5.498C3.459,352.077,0.999,349.6,0.999,346.579z"/>
<path fill="#D81D6D" d="M0.999,370.069c0-3.032,2.46-5.498,5.494-5.498c3.036,0,5.507,2.466,5.507,5.498
  c0,3.021-2.471,5.499-5.507,5.499C3.459,375.568,0.999,373.09,0.999,370.069z"/>
<path fill="#C3D884" d="M1.999,463.086c0-2.48,2.013-4.499,4.497-4.499c2.482,0,4.504,2.019,4.504,4.499
  c0,2.472-2.021,4.497-4.504,4.497C4.012,467.584,1.999,465.557,1.999,463.086z"/>
<path fill="#59A8DD" d="M12.499,484.755c0,3.31-2.688,5.998-5.999,5.998c-3.311,0-6.001-2.688-6.001-5.998
  c0-3.311,2.69-5.998,6.001-5.998C9.811,478.757,12.499,481.444,12.499,484.755z"/>
<path fill="#F7A93B" d="M2.931,570.682c0-1.959,1.599-3.569,3.569-3.569c1.971,0,3.568,1.61,3.568,3.569
  c0,1.97-1.6,3.569-3.568,3.569C4.529,574.252,2.931,572.651,2.931,570.682z"/>
<path fill="#C3D884" d="M2,589.334c0-2.479,2.012-4.498,4.496-4.498c2.482,0,4.504,2.019,4.504,4.498
  c0,2.473-2.021,4.498-4.504,4.498C4.012,593.832,2,591.806,2,589.334z"/>
<path fill="#59A8DD" d="M12.499,609.631c0,3.31-2.688,5.998-5.999,5.998c-3.312,0-6.001-2.688-6.001-5.998
  c0-3.311,2.689-5.998,6.001-5.998C9.811,603.633,12.499,606.32,12.499,609.631z"/>
<path fill="#59A8DD" d="M1.999,690.805c0-2.479,2.013-4.499,4.497-4.499c2.482,0,4.503,2.02,4.503,4.499
  c0,2.472-2.021,4.499-4.503,4.499C4.012,695.304,1.999,693.276,1.999,690.805z"/>
<path fill="#C3D884" d="M1.999,711.687c0-2.48,2.013-4.499,4.497-4.499c2.482,0,4.504,2.019,4.504,4.499
  c0,2.472-2.021,4.498-4.504,4.498C4.012,716.185,1.999,714.158,1.999,711.687z"/>
<path fill="#F4A698" d="M2.499,730.437c0-2.192,1.793-3.999,4.001-3.999c2.207,0,3.999,1.807,3.999,3.999
  c0,2.208-1.792,3.999-3.999,3.999C4.292,734.436,2.499,732.645,2.499,730.437z"/>
<path fill="#C3D884" d="M1.999,809.908c0-2.479,2.012-4.498,4.496-4.498c2.483,0,4.504,2.02,4.504,4.498
  c0,2.474-2.021,4.499-4.504,4.499C4.011,814.407,1.999,812.382,1.999,809.908z"/>
<path fill="#59A8DD" d="M12.499,826.455c0,3.311-2.688,5.998-5.999,5.998c-3.311,0-6.001-2.688-6.001-5.998
  c0-3.31,2.69-5.998,6.001-5.998C9.813,820.457,12.499,823.146,12.499,826.455z"/>
<path fill="#F7A93B" d="M2.499,842.153c0-2.191,1.792-3.999,4-3.999s4,1.808,4,3.999c0,2.208-1.792,3.999-4,3.999
  S2.499,844.361,2.499,842.153z"/>
<path fill="#F7A93B" d="M12.499,922.671c0,3.311-2.688,5.999-5.999,5.999c-3.311,0-6.001-2.688-6.001-5.999
  c0-3.31,2.69-5.998,6.001-5.998C9.813,916.673,12.499,919.361,12.499,922.671z"/>
<path fill="#59A8DD" d="M1.999,940.618c0-2.468,2.016-4.499,4.5-4.499c2.483,0,4.5,2.031,4.5,4.499c0,2.483-2.017,4.499-4.5,4.499
  C4.015,945.117,1.999,943.102,1.999,940.618z"/>
<path fill="#C3D884" d="M1.999,964.861c0-2.469,2.016-4.499,4.5-4.499c2.483,0,4.5,2.03,4.5,4.499c0,2.483-2.017,4.498-4.5,4.498
  C4.015,969.359,1.999,967.345,1.999,964.861z"/>
</svg>
