<svg version="1.1" id="Слой_1" xmlns="http://www.w3.org/2000/svg" xmlns:xlink="http://www.w3.org/1999/xlink" x="0px" y="0px" width="273.5px" height="13px" viewBox="-13.5 0 273.5 13" enable-background="new -13.5 0 273.5 13" xml:space="preserve">
<g id="circles">
  <g id="_2439399357024">
    <path fill="#C4D985" d="M127.55,1.95c2.77,0,5.011,2.24,5.011,5.01c0,2.78-2.241,5.021-5.011,5.021s-5.02-2.24-5.02-5.021
    C122.53,4.19,124.78,1.95,127.55,1.95z"/>
    <path fill="#C4D985" d="M255.061,1.03c2.76,0,5.01,2.24,5.01,5.01c0,2.771-2.25,5.021-5.01,5.021c-2.781,0-5.021-2.25-5.021-5.021
      C250.04,3.27,252.279,1.03,255.061,1.03L255.061,1.03z"/>
    <path fill="#59A8DD" d="M152.63,1.1c2.729,0,4.95,2.21,4.95,4.94c0,2.729-2.221,4.95-4.95,4.95s-4.95-2.221-4.95-4.95
      C147.68,3.31,149.9,1.1,152.63,1.1z"/>
    <path fill="#D71C6D" d="M25,2.34c2.55,0,4.62,2.07,4.62,4.63c0,2.54-2.07,4.61-4.62,4.61s-4.62-2.07-4.62-4.61
      C20.38,4.41,22.45,2.34,25,2.34z"/>
    <path fill="#59A8DD" d="M3.5,2.47c1.97,0,3.57,1.6,3.57,3.57c0,1.97-1.6,3.569-3.57,3.569c-1.96,0-3.57-1.6-3.57-3.569
      C-0.07,4.07,1.54,2.47,3.5,2.47z"/>
    <path fill="#F7A93B" d="M171.7,12.311c-3.46,0-6.271-2.811-6.271-6.271s2.811-6.27,6.271-6.27s6.28,2.81,6.28,6.27
      S175.16,12.311,171.7,12.311z"/>
    <path fill="#F7A93B" d="M70.88,12.311c-3.46,0-6.27-2.811-6.27-6.271s2.81-6.27,6.27-6.27c3.47,0,6.27,2.81,6.27,6.27
      S74.35,12.311,70.88,12.311z"/>
    <path fill="#59A8DD" d="M231.9,12.311c-3.471,0-6.271-2.811-6.271-6.271s2.8-6.27,6.271-6.27c3.459,0,6.26,2.81,6.26,6.27
      S235.359,12.311,231.9,12.311z"/>
    <path fill="#59A8DD" d="M46.79,10.99c-2.73,0-4.95-2.221-4.95-4.95c0-2.73,2.22-4.95,4.95-4.95c2.74,0,4.95,2.22,4.95,4.95
      C51.74,8.77,49.53,10.99,46.79,10.99z"/>
    <path fill="#D71C6D" d="M200.221,12.311c-3.471,0-6.271-2.811-6.271-6.271s2.8-6.27,6.271-6.27c3.459,0,6.27,2.81,6.27,6.27
      S203.68,12.311,200.221,12.311z"/>
    <path fill="#D71C6D" d="M102.49,13.23c-3.46,0-6.27-2.811-6.27-6.271s2.81-6.26,6.27-6.26c3.46,0,6.27,2.8,6.27,6.26
      S105.95,13.23,102.49,13.23z"/>
  </g>
</g>
</svg>
