<?xml version="1.0" encoding="UTF-8"?>
<!DOCTYPE svg PUBLIC "-//W3C//DTD SVG 1.1//EN" "http://www.w3.org/Graphics/SVG/1.1/DTD/svg11.dtd">
<!-- Creator: CorelDRAW 2018 (64-Bit) -->
<svg xmlns="http://www.w3.org/2000/svg" xml:space="preserve" width="260px" height="13px" version="1.1" style="shape-rendering:geometricPrecision; text-rendering:geometricPrecision; image-rendering:optimizeQuality; fill-rule:evenodd; clip-rule:evenodd"
viewBox="0 0 260 13"
 xmlns:xlink="http://www.w3.org/1999/xlink">
 <defs>
  <style type="text/css">
   <![CDATA[
    .fil1 {fill:#59A8DD;fill-rule:nonzero}
    .fil0 {fill:#C4D985;fill-rule:nonzero}
    .fil2 {fill:#D71C6D;fill-rule:nonzero}
    .fil3 {fill:#F7A93B;fill-rule:nonzero}
   ]]>
  </style>
 </defs>
 <g id="circles">
  <metadata id="CorelCorpID_0Corel-Layer"/>
  <g id="_2439399357024">
   <path class="fil0" d="M127.55 1.95c2.77,0 5.01,2.24 5.01,5.01 0,2.78 -2.24,5.02 -5.01,5.02 -2.77,0 -5.02,-2.24 -5.02,-5.02 0,-2.77 2.25,-5.01 5.02,-5.01z"/>
   <path class="fil0" d="M255.06 1.03c2.76,0 5.01,2.24 5.01,5.01 0,2.77 -2.25,5.02 -5.01,5.02 -2.78,0 -5.02,-2.25 -5.02,-5.02 0,-2.77 2.24,-5.01 5.02,-5.01z"/>
   <path class="fil1" d="M152.63 1.1c2.73,0 4.95,2.21 4.95,4.94 0,2.73 -2.22,4.95 -4.95,4.95 -2.73,0 -4.95,-2.22 -4.95,-4.95 0,-2.73 2.22,-4.94 4.95,-4.94z"/>
   <path class="fil2" d="M25 2.34c2.55,0 4.62,2.07 4.62,4.63 0,2.54 -2.07,4.61 -4.62,4.61 -2.55,0 -4.62,-2.07 -4.62,-4.61 0,-2.56 2.07,-4.63 4.62,-4.63z"/>
   <path class="fil1" d="M3.5 2.47c1.97,0 3.57,1.6 3.57,3.57 0,1.97 -1.6,3.57 -3.57,3.57 -1.96,0 -3.57,-1.6 -3.57,-3.57 0,-1.97 1.61,-3.57 3.57,-3.57z"/>
   <path class="fil3" d="M171.7 12.31c-3.46,0 -6.27,-2.81 -6.27,-6.27 0,-3.46 2.81,-6.27 6.27,-6.27 3.46,0 6.28,2.81 6.28,6.27 0,3.46 -2.82,6.27 -6.28,6.27z"/>
   <path class="fil3" d="M70.88 12.31c-3.46,0 -6.27,-2.81 -6.27,-6.27 0,-3.46 2.81,-6.27 6.27,-6.27 3.47,0 6.27,2.81 6.27,6.27 0,3.46 -2.8,6.27 -6.27,6.27z"/>
   <path class="fil1" d="M231.9 12.31c-3.47,0 -6.27,-2.81 -6.27,-6.27 0,-3.46 2.8,-6.27 6.27,-6.27 3.46,0 6.26,2.81 6.26,6.27 0,3.46 -2.8,6.27 -6.26,6.27z"/>
   <path class="fil1" d="M46.79 10.99c-2.73,0 -4.95,-2.22 -4.95,-4.95 0,-2.73 2.22,-4.95 4.95,-4.95 2.74,0 4.95,2.22 4.95,4.95 0,2.73 -2.21,4.95 -4.95,4.95z"/>
   <path class="fil2" d="M200.22 12.31c-3.47,0 -6.27,-2.81 -6.27,-6.27 0,-3.46 2.8,-6.27 6.27,-6.27 3.46,0 6.27,2.81 6.27,6.27 0,3.46 -2.81,6.27 -6.27,6.27z"/>
   <path class="fil2" d="M102.49 13.23c-3.46,0 -6.27,-2.81 -6.27,-6.27 0,-3.46 2.81,-6.26 6.27,-6.26 3.46,0 6.27,2.8 6.27,6.26 0,3.46 -2.81,6.27 -6.27,6.27z"/>
  </g>
 </g>
</svg>
