<svg xmlns="http://www.w3.org/2000/svg" xml:space="preserve" width="13px" height="260px" version="1.1" style="shape-rendering:geometricPrecision; text-rendering:geometricPrecision; image-rendering:optimizeQuality; fill-rule:evenodd; clip-rule:evenodd"
viewBox="0 0 13 260.01"
  xmlns:xlink="http://www.w3.org/1999/xlink">
  <defs>
  <style type="text/css">
    <![CDATA[
      .fil1 {fill:#59A8DD;fill-rule:nonzero}
      .fil0 {fill:#C4D985;fill-rule:nonzero}
      .fil2 {fill:#D71C6D;fill-rule:nonzero}
      .fil3 {fill:#F7A93B;fill-rule:nonzero}
    ]]>
  </style>
  </defs>
  <g id="circles">
  <metadata id="CorelCorpID_0Corel-Layer"/>
  <g id="_2404830353904">
    <path class="fil0" d="M1.95 132.46c0,-2.77 2.24,-5.02 5.01,-5.02 2.78,0 5.02,2.25 5.02,5.02 0,2.77 -2.24,5.01 -5.02,5.01 -2.77,0 -5.01,-2.24 -5.01,-5.01z"/>
    <path class="fil0" d="M1.03 4.94c0,-2.76 2.24,-5.01 5.01,-5.01 2.77,0 5.02,2.25 5.02,5.01 0,2.78 -2.25,5.02 -5.02,5.02 -2.77,0 -5.01,-2.24 -5.01,-5.02z"/>
    <path class="fil1" d="M1.1 107.38c0,-2.73 2.21,-4.95 4.94,-4.95 2.73,0 4.95,2.22 4.95,4.95 0,2.72 -2.22,4.95 -4.95,4.95 -2.73,0 -4.94,-2.23 -4.94,-4.95z"/>
    <path class="fil2" d="M2.34 235.02c0,-2.56 2.07,-4.63 4.63,-4.63 2.54,0 4.61,2.07 4.61,4.63 0,2.55 -2.07,4.61 -4.61,4.61 -2.56,0 -4.63,-2.06 -4.63,-4.61z"/>
    <path class="fil1" d="M2.47 256.51c0,-1.96 1.6,-3.57 3.57,-3.57 1.97,0 3.57,1.61 3.57,3.57 0,1.97 -1.6,3.57 -3.57,3.57 -1.97,0 -3.57,-1.6 -3.57,-3.57z"/>
    <path class="fil3" d="M12.31 88.3c0,3.46 -2.81,6.27 -6.27,6.27 -3.46,0 -6.27,-2.81 -6.27,-6.27 0,-3.46 2.81,-6.27 6.27,-6.27 3.46,0 6.27,2.81 6.27,6.27z"/>
    <path class="fil3" d="M12.31 189.13c0,3.47 -2.81,6.27 -6.27,6.27 -3.46,0 -6.27,-2.8 -6.27,-6.27 0,-3.47 2.81,-6.27 6.27,-6.27 3.46,0 6.27,2.8 6.27,6.27z"/>
    <path class="fil1" d="M12.31 28.1c0,3.47 -2.81,6.28 -6.27,6.28 -3.46,0 -6.27,-2.81 -6.27,-6.28 0,-3.46 2.81,-6.26 6.27,-6.26 3.46,0 6.27,2.8 6.27,6.26z"/>
    <path class="fil1" d="M10.99 213.22c0,2.73 -2.22,4.95 -4.95,4.95 -2.73,0 -4.95,-2.22 -4.95,-4.95 0,-2.73 2.22,-4.95 4.95,-4.95 2.73,0 4.95,2.22 4.95,4.95z"/>
    <path class="fil2" d="M12.31 59.79c0,3.46 -2.81,6.27 -6.27,6.27 -3.46,0 -6.27,-2.81 -6.27,-6.27 0,-3.46 2.81,-6.27 6.27,-6.27 3.46,0 6.27,2.81 6.27,6.27z"/>
    <path class="fil2" d="M13.23 157.52c0,3.46 -2.8,6.27 -6.27,6.27 -3.46,0 -6.26,-2.81 -6.26,-6.27 0,-3.47 2.8,-6.27 6.26,-6.27 3.47,0 6.27,2.8 6.27,6.27z"/>
  </g>
  </g>
</svg>
