<svg version="1.1" id="Слой_1" xmlns="http://www.w3.org/2000/svg" xmlns:xlink="http://www.w3.org/1999/xlink" x="0px" y="0px" width="13px" height="992.5px" viewBox="0 0 13 992.5" enable-background="new 0 0 13 992.5" xml:space="preserve">
<g>
  <path fill="#F7A93C" d="M2.5,3.999C2.5,1.793,4.288,0,6.496,0S10.5,1.793,10.5,3.999c0,2.197-1.796,3.999-4.004,3.999
    S2.5,6.196,2.5,3.999z"/>
  <path fill="#C3D884" d="M1.5,24.887c0-2.757,2.235-4.999,4.996-4.999c2.759,0,5.004,2.241,5.004,4.999
    c0,2.747-2.245,4.999-5.004,4.999C3.735,29.886,1.5,27.634,1.5,24.887z"/>
  <path fill="#F7A93B" d="M12.77,103.821c0,3.459-2.81,6.268-6.27,6.268s-6.271-2.809-6.271-6.268c0-3.458,2.811-6.268,6.271-6.268
    S12.77,100.362,12.77,103.821z"/>
  <path fill="#59A8DD" d="M1.555,122.504c0-2.729,2.211-4.948,4.94-4.948s4.95,2.219,4.95,4.948c0,2.719-2.221,4.948-4.95,4.948
    S1.555,125.223,1.555,122.504z"/>
  <path fill="#C3D884" d="M2,146.256c0-2.48,2.012-4.499,4.497-4.499c2.482,0,4.503,2.019,4.503,4.499
    c0,2.472-2.021,4.498-4.503,4.498C4.012,150.754,2,148.728,2,146.256z"/>
  <path fill="#F7A93B" d="M12.77,220.786c0,3.458-2.81,6.268-6.27,6.268s-6.271-2.81-6.271-6.268s2.811-6.268,6.271-6.268
    S12.77,217.328,12.77,220.786z"/>
  <path fill="#59A8DD" d="M1.555,243.555c0-2.729,2.211-4.95,4.94-4.95s4.95,2.221,4.95,4.95c0,2.718-2.221,4.947-4.95,4.947
    S1.555,246.272,1.555,243.555z"/>
  <path fill="#D81D6D" d="M2,264.97c0-2.479,2.012-4.498,4.497-4.498c2.482,0,4.503,2.019,4.503,4.498
    c0,2.473-2.021,4.499-4.503,4.499C4.012,269.469,2,267.442,2,264.97z"/>
  <path fill="#F4A698" d="M2.931,284.221c0-1.959,1.6-3.569,3.569-3.569s3.569,1.61,3.569,3.569c0,1.97-1.6,3.568-3.569,3.568
    S2.931,286.19,2.931,284.221z"/>
</g>
  <path fill="#F7A93B" d="M1.999,303.592c0-2.48,2.013-4.499,4.496-4.499s4.504,2.019,4.504,4.499c0,2.47-2.021,4.498-4.504,4.498
    S1.999,306.062,1.999,303.592z"/>
  <path fill="#59A8DD" d="M0.999,346.579c0-3.032,2.46-5.499,5.494-5.499c3.036,0,5.507,2.467,5.507,5.499
    c0,3.021-2.471,5.498-5.507,5.498C3.459,352.077,0.999,349.6,0.999,346.579z"/>
  <path fill="#D81D6D" d="M0.999,377.069c0-3.032,2.46-5.498,5.494-5.498c3.036,0,5.507,2.466,5.507,5.498
    c0,3.021-2.471,5.499-5.507,5.499C3.459,382.568,0.999,380.09,0.999,377.069z"/>
  <path fill="#C3D884" d="M1.999,465.085c0-2.48,2.013-4.499,4.497-4.499c2.483,0,4.504,2.019,4.504,4.499
    c0,2.472-2.021,4.498-4.504,4.498C4.012,469.583,1.999,467.557,1.999,465.085z"/>
  <path fill="#59A8DD" d="M12.499,486.754c0,3.31-2.688,5.998-5.999,5.998s-6.001-2.688-6.001-5.998s2.69-5.998,6.001-5.998
    S12.499,483.444,12.499,486.754z"/>
  <path fill="#F7A93B" d="M2.931,572.682c0-1.959,1.599-3.569,3.569-3.569c1.97,0,3.568,1.61,3.568,3.569
    c0,1.97-1.599,3.569-3.568,3.569C4.529,576.251,2.931,574.651,2.931,572.682z"/>
  <path fill="#C3D884" d="M2,593.334c0-2.48,2.012-4.499,4.496-4.499c2.483,0,4.504,2.019,4.504,4.499
    c0,2.472-2.021,4.498-4.504,4.498C4.012,597.832,2,595.806,2,593.334z"/>
  <path fill="#59A8DD" d="M12.499,615.63c0,3.31-2.688,5.998-5.999,5.998c-3.312,0-6.001-2.688-6.001-5.998s2.689-5.998,6.001-5.998
    C9.811,609.632,12.499,612.32,12.499,615.63z"/>
  <path fill="#59A8DD" d="M1.999,690.805c0-2.479,2.013-4.499,4.497-4.499c2.483,0,4.503,2.02,4.503,4.499
    c0,2.472-2.02,4.499-4.503,4.499C4.012,695.304,1.999,693.276,1.999,690.805z"/>
  <path fill="#C3D884" d="M1.999,714.687c0-2.48,2.013-4.499,4.497-4.499c2.483,0,4.504,2.019,4.504,4.499
    c0,2.472-2.021,4.498-4.504,4.498C4.012,719.185,1.999,717.158,1.999,714.687z"/>
  <path fill="#F4A698" d="M2.499,733.437c0-2.192,1.793-3.999,4.001-3.999c2.207,0,3.999,1.807,3.999,3.999
    c0,2.208-1.792,3.999-3.999,3.999C4.292,737.436,2.499,735.645,2.499,733.437z"/>
  <path fill="#C3D884" d="M1.999,807.908c0-2.479,2.012-4.498,4.496-4.498s4.504,2.019,4.504,4.498c0,2.473-2.02,4.499-4.504,4.499
    S1.999,810.381,1.999,807.908z"/>
  <path fill="#59A8DD" d="M12.499,829.455c0,3.31-2.688,5.998-5.999,5.998c-3.311,0-6.001-2.688-6.001-5.998s2.69-5.998,6.001-5.998
    C9.812,823.457,12.499,826.146,12.499,829.455z"/>
  <path fill="#F7A93B" d="M2.499,845.153c0-2.192,1.792-3.999,4-3.999s4,1.807,4,3.999c0,2.208-1.792,3.999-4,3.999
    S2.499,847.361,2.499,845.153z"/>
  <path fill="#C3D884" d="M1.999,866.147c0-2.469,2.016-4.499,4.5-4.499s4.5,2.03,4.5,4.499c0,2.483-2.016,4.498-4.5,4.498
    S1.999,868.631,1.999,866.147z"/>
  <path fill="#F7A93B" d="M12.499,945.67c0,3.311-2.688,5.999-5.999,5.999c-3.311,0-6.001-2.688-6.001-5.999
    c0-3.309,2.69-5.998,6.001-5.998C9.812,939.672,12.499,942.361,12.499,945.67z"/>
  <path fill="#59A8DD" d="M1.999,963.618c0-2.468,2.016-4.499,4.5-4.499s4.5,2.031,4.5,4.499c0,2.483-2.016,4.499-4.5,4.499
    S1.999,966.102,1.999,963.618z"/>
  <path fill="#C3D884" d="M1.999,987.861c0-2.469,2.016-4.499,4.5-4.499s4.5,2.03,4.5,4.499c0,2.483-2.016,4.498-4.5,4.498
    S1.999,990.345,1.999,987.861z"/>
</svg>
