<?xml version="1.0" encoding="utf-8"?>
<!-- Generator: Adobe Illustrator 15.1.0, SVG Export Plug-In . SVG Version: 6.00 Build 0)  -->
<!DOCTYPE svg PUBLIC "-//W3C//DTD SVG 1.1//EN" "http://www.w3.org/Graphics/SVG/1.1/DTD/svg11.dtd">
<svg version="1.1" id="Слой_1" xmlns="http://www.w3.org/2000/svg" xmlns:xlink="http://www.w3.org/1999/xlink" x="0px" y="0px"
	 width="13px" height="290px" viewBox="0 0 13 290" enable-background="new 0 0 13 290" xml:space="preserve">
<g>
	<path fill="#F7A93C" d="M2.73,4.945c0-2.206,1.788-4,3.996-4s4.004,1.794,4.004,4c0,2.198-1.796,4-4.004,4S2.73,7.143,2.73,4.945z"
		/>
	<path fill="#C3D884" d="M1.73,25.839c0-2.758,2.235-5,4.996-5c2.759,0,5.004,2.242,5.004,5c0,2.748-2.245,5-5.004,5
		C3.966,30.839,1.73,28.587,1.73,25.839z"/>
	<path fill="#F7A93B" d="M13,104.796c0,3.46-2.81,6.27-6.27,6.27s-6.271-2.81-6.271-6.27c0-3.459,2.811-6.27,6.271-6.27
		S13,101.337,13,104.796z"/>
	<path fill="#59A8DD" d="M1.785,123.485c0-2.73,2.211-4.95,4.94-4.95s4.95,2.22,4.95,4.95c0,2.72-2.221,4.95-4.95,4.95
		S1.785,126.205,1.785,123.485z"/>
	<path fill="#C3D884" d="M2.23,147.244c0-2.481,2.012-4.5,4.497-4.5c2.482,0,4.503,2.019,4.503,4.5c0,2.472-2.021,4.5-4.503,4.5
		C4.242,151.744,2.23,149.716,2.23,147.244z"/>
	<path fill="#F7A93B" d="M13,221.797c0,3.459-2.81,6.27-6.27,6.27s-6.271-2.811-6.271-6.27c0-3.46,2.811-6.27,6.271-6.27
		S13,218.337,13,221.797z"/>
	<path fill="#59A8DD" d="M1.785,244.571c0-2.729,2.211-4.95,4.94-4.95s4.95,2.221,4.95,4.95c0,2.72-2.221,4.95-4.95,4.95
		S1.785,247.291,1.785,244.571z"/>
	<path fill="#D81D6D" d="M2.23,265.994c0-2.481,2.012-4.5,4.497-4.5c2.482,0,4.503,2.019,4.503,4.5c0,2.472-2.021,4.5-4.503,4.5
		C4.242,270.494,2.23,268.466,2.23,265.994z"/>
	<path fill="#F4A698" d="M3.161,285.25c0-1.96,1.6-3.57,3.569-3.57s3.569,1.61,3.569,3.57c0,1.971-1.6,3.57-3.569,3.57
		S3.161,287.221,3.161,285.25z"/>
</g>
</svg>
