<svg version="1.1" id="Слой_1" xmlns="http://www.w3.org/2000/svg" xmlns:xlink="http://www.w3.org/1999/xlink" x="0px" y="0px" width="13px" height="1222.359px" viewBox="0 0 13 1222.359" enable-background="new 0 0 13 1222.359" xml:space="preserve">
<g>
  <path fill="#F7A93C" d="M2.5,4.999C2.5,2.793,4.288,1,6.496,1S10.5,2.793,10.5,4.999c0,2.197-1.796,3.999-4.004,3.999
    S2.5,7.196,2.5,4.999z"/>
  <path fill="#C3D884" d="M1.5,25.887c0-2.758,2.235-4.999,4.996-4.999c2.759,0,5.004,2.24,5.004,4.999
    c0,2.746-2.245,4.999-5.004,4.999C3.735,30.886,1.5,28.634,1.5,25.887z"/>
  <path fill="#F7A93B" d="M12.77,120.821c0,3.459-2.81,6.268-6.27,6.268s-6.271-2.809-6.271-6.268c0-3.458,2.811-6.268,6.271-6.268
    S12.77,117.362,12.77,120.821z"/>
  <path fill="#59A8DD" d="M1.555,139.504c0-2.729,2.211-4.947,4.94-4.947c2.729,0,4.95,2.219,4.95,4.947
    c0,2.72-2.221,4.948-4.95,4.948C3.766,144.452,1.555,142.223,1.555,139.504z"/>
  <path fill="#C3D884" d="M2,159.256c0-2.479,2.012-4.499,4.497-4.499c2.481,0,4.503,2.02,4.503,4.499
    c0,2.473-2.021,4.498-4.503,4.498C4.012,163.754,2,161.728,2,159.256z"/>
  <path fill="#F7A93B" d="M12.77,270.786c0,3.458-2.81,6.269-6.27,6.269s-6.271-2.811-6.271-6.269s2.811-6.268,6.271-6.268
    S12.77,267.328,12.77,270.786z"/>
  <path fill="#59A8DD" d="M1.555,292.555c0-2.729,2.211-4.95,4.94-4.95c2.729,0,4.95,2.221,4.95,4.95c0,2.718-2.221,4.946-4.95,4.946
    C3.766,297.502,1.555,295.272,1.555,292.555z"/>
  <path fill="#D81D6D" d="M2,312.97c0-2.479,2.012-4.498,4.497-4.498c2.481,0,4.503,2.019,4.503,4.498
    c0,2.473-2.021,4.499-4.503,4.499C4.012,317.469,2,315.442,2,312.97z"/>
</g>
<path fill="#59A8DD" d="M0.999,408.579c0-3.032,2.46-5.499,5.494-5.499c3.036,0,5.507,2.467,5.507,5.499
  c0,3.021-2.471,5.498-5.507,5.498C3.459,414.077,0.999,411.6,0.999,408.579z"/>
<path fill="#D81D6D" d="M0.999,432.069c0-3.032,2.46-5.498,5.494-5.498c3.036,0,5.507,2.466,5.507,5.498
  c0,3.021-2.471,5.499-5.507,5.499C3.459,437.568,0.999,435.09,0.999,432.069z"/>
<path fill="#C3D884" d="M1.999,597.086c0-2.48,2.013-4.499,4.497-4.499c2.482,0,4.504,2.019,4.504,4.499
  c0,2.472-2.021,4.497-4.504,4.497C4.012,601.584,1.999,599.557,1.999,597.086z"/>
<path fill="#59A8DD" d="M12.499,618.755c0,3.31-2.688,5.998-5.999,5.998c-3.311,0-6.001-2.688-6.001-5.998
  c0-3.311,2.69-5.998,6.001-5.998C9.811,612.757,12.499,615.444,12.499,618.755z"/>
<path fill="#F7A93B" d="M2.931,729.682c0-1.959,1.599-3.569,3.569-3.569c1.971,0,3.568,1.61,3.568,3.569
  c0,1.97-1.6,3.569-3.568,3.569C4.529,733.252,2.931,731.651,2.931,729.682z"/>
<path fill="#C3D884" d="M2,748.334c0-2.479,2.012-4.498,4.496-4.498c2.482,0,4.504,2.019,4.504,4.498
  c0,2.473-2.021,4.498-4.504,4.498C4.012,752.832,2,750.806,2,748.334z"/>
<path fill="#59A8DD" d="M12.499,768.631c0,3.31-2.688,5.998-5.999,5.998c-3.312,0-6.001-2.688-6.001-5.998
  c0-3.311,2.689-5.998,6.001-5.998C9.811,762.633,12.499,765.32,12.499,768.631z"/>
<path fill="#59A8DD" d="M1.999,877.805c0-2.479,2.013-4.499,4.497-4.499c2.482,0,4.503,2.02,4.503,4.499
  c0,2.472-2.021,4.499-4.503,4.499C4.012,882.304,1.999,880.276,1.999,877.805z"/>
<path fill="#C3D884" d="M1.999,898.687c0-2.48,2.013-4.499,4.497-4.499c2.482,0,4.504,2.019,4.504,4.499
  c0,2.472-2.021,4.498-4.504,4.498C4.012,903.185,1.999,901.158,1.999,898.687z"/>
<path fill="#F4A698" d="M2.499,917.437c0-2.192,1.793-3.999,4.001-3.999c2.207,0,3.999,1.807,3.999,3.999
  c0,2.208-1.792,3.999-3.999,3.999C4.292,921.436,2.499,919.645,2.499,917.437z"/>
<path fill="#C3D884" d="M1.999,1022.908c0-2.479,2.012-4.498,4.496-4.498c2.483,0,4.504,2.02,4.504,4.498
  c0,2.474-2.021,4.499-4.504,4.499C4.011,1027.407,1.999,1025.382,1.999,1022.908z"/>
<path fill="#59A8DD" d="M12.499,1042.455c0,3.311-2.688,5.998-5.999,5.998c-3.311,0-6.001-2.688-6.001-5.998
  c0-3.31,2.69-5.998,6.001-5.998C9.813,1036.457,12.499,1039.146,12.499,1042.455z"/>
<path fill="#F7A93B" d="M2.499,1062.153c0-2.191,1.792-3.999,4-3.999s4,1.808,4,3.999c0,2.208-1.792,3.999-4,3.999
  S2.499,1064.361,2.499,1062.153z"/>
<path fill="#F7A93B" d="M12.499,1175.671c0,3.311-2.688,5.999-5.999,5.999c-3.311,0-6.001-2.688-6.001-5.999
  c0-3.31,2.69-5.998,6.001-5.998C9.813,1169.673,12.499,1172.361,12.499,1175.671z"/>
<path fill="#59A8DD" d="M1.999,1193.618c0-2.468,2.016-4.499,4.5-4.499c2.483,0,4.5,2.031,4.5,4.499c0,2.483-2.017,4.499-4.5,4.499
  C4.015,1198.117,1.999,1196.102,1.999,1193.618z"/>
<path fill="#C3D884" d="M1.999,1216.861c0-2.469,2.016-4.499,4.5-4.499c2.483,0,4.5,2.03,4.5,4.499c0,2.483-2.017,4.498-4.5,4.498
  C4.015,1221.359,1.999,1219.345,1.999,1216.861z"/>
</svg>
