<svg xmlns="http://www.w3.org/2000/svg" xmlns:xlink="http://www.w3.org/1999/xlink" x="0px" y="0px"
	 width="22px" height="13px" viewBox="0 0 22 13" enable-background="new 0 0 22 13" xml:space="preserve">
<path fill="#ffffff" d="M403.466,348.4c1.512-4.749,0-8.203-6.691-8.203h-22.235c-5.612,0-8.203,3.022-9.714,6.26
	c0,0-11.441,27.632-27.416,45.549c-5.181,5.181-7.556,6.908-10.362,6.908c-1.511,0-3.454-1.727-3.454-6.476v-44.254
	c0-5.613-1.727-8.203-6.476-8.203h-34.972c-3.454,0-5.612,2.59-5.612,5.181c0,5.396,7.987,6.692,8.851,21.803v32.813
	c0,7.124-1.295,8.42-4.102,8.42c-7.556,0-25.904-27.848-36.914-59.582c-2.159-6.26-4.317-8.635-9.931-8.635h-22.45
	c-6.477,0-7.556,3.022-7.556,6.26c0,5.829,7.556,35.188,35.188,74.044c18.349,26.553,44.47,40.801,67.999,40.801
	c14.248,0,15.975-3.238,15.975-8.635v-20.076c0-6.477,1.296-7.556,5.829-7.556c3.238,0,9.066,1.727,22.234,14.463
	c15.111,15.111,17.702,22.02,26.121,22.02h22.234c6.477,0,9.499-3.238,7.771-9.499c-1.942-6.26-9.282-15.326-18.78-26.12
	c-5.181-6.044-12.952-12.737-15.327-15.975c-3.238-4.317-2.375-6.044,0-9.931C373.46,399.777,400.66,361.353,403.466,348.4"/>
</svg>
