<svg version="1.1" id="Слой_1" xmlns="http://www.w3.org/2000/svg" xmlns:xlink="http://www.w3.org/1999/xlink" x="0px" y="0px" width="158px" height="142px" viewBox="0 0 158 142" enable-background="new 0 0 158 142" xml:space="preserve">
<g id="Слой_x0020_1">
  <path fill="#59361B" d="M134.221,39.44H23.78c-13.06,0-23.67,10.61-23.67,23.67v47.33h31.56V142h94.66v-31.561h31.561V63.11
    C157.891,50.05,147.279,39.44,134.221,39.44z M110.561,126.221H47.44V86.779h63.121V126.221L110.561,126.221z M134.221,71
    c-4.381,0-7.891-3.51-7.891-7.89s3.51-7.89,7.891-7.89c4.379,0,7.889,3.51,7.889,7.89S138.6,71,134.221,71z M126.33,0H31.67v31.56
    h94.66V0z"/>
</g>
</svg>
