<svg xmlns="http://www.w3.org/2000/svg" xmlns:xlink="http://www.w3.org/1999/xlink">
  <symbol id="vk" viewBox="0 0 22 13" width="22" height="13">
    <g>
      <path d="M21.436,0.902c0.164-0.509,0-0.879-0.723-0.879h-2.399c-0.606,0-0.886,0.324-1.048,0.671
  c0,0-1.235,2.961-2.961,4.881c-0.559,0.555-0.814,0.739-1.117,0.739c-0.163,0-0.373-0.185-0.373-0.693V0.879
  C12.814,0.277,12.629,0,12.115,0H8.341C7.968,0,7.735,0.277,7.735,0.556c0,0.578,0.862,0.717,0.956,2.336v3.518
  c0,0.763-0.14,0.9-0.443,0.9c-0.816,0-2.796-2.983-3.984-6.384C4.031,0.255,3.797,0,3.191,0H0.769C0.07,0-0.047,0.324-0.047,0.671
  c0,0.625,0.815,3.771,3.797,7.935c1.98,2.844,4.8,4.371,7.34,4.371c1.538,0,1.724-0.348,1.724-0.924V9.901
  c0-0.694,0.14-0.81,0.629-0.81c0.35,0,0.979,0.185,2.398,1.548c1.632,1.621,1.911,2.36,2.82,2.36h2.4
  c0.698,0,1.025-0.347,0.839-1.018c-0.209-0.67-1.002-1.642-2.027-2.799c-0.56-0.647-1.397-1.365-1.654-1.711
  c-0.35-0.463-0.257-0.649,0-1.063C18.196,6.409,21.133,2.291,21.436,0.902" />
    </g>
  </symbol>
  <symbol id="instagram" viewBox="0 0 19 19" width="19" height="19">
    <g>
      <path d="M18.283,0.718C17.805,0.239,17.231,0,16.563,0H2.438C1.77,0,1.196,0.239,0.718,0.718S0,1.77,0,2.437v14.127
    c0,0.668,0.239,1.241,0.718,1.72C1.196,18.761,1.77,19,2.438,19h14.126c0.668,0,1.241-0.239,1.72-0.717
    C18.762,17.805,19,17.231,19,16.563V2.437C19,1.77,18.762,1.196,18.283,0.718z M6.822,6.847c0.746-0.722,1.644-1.082,2.69-1.082
    c1.056,0,1.956,0.36,2.703,1.082c0.746,0.722,1.119,1.594,1.119,2.617c0,1.021-0.373,1.895-1.119,2.615
    c-0.747,0.722-1.647,1.083-2.703,1.083c-1.047,0-1.944-0.361-2.69-1.083s-1.119-1.594-1.119-2.615
    C5.703,8.44,6.076,7.568,6.822,6.847z M16.849,16.057c0,0.214-0.075,0.394-0.224,0.538c-0.147,0.144-0.325,0.217-0.532,0.217H2.87
    c-0.214,0-0.394-0.073-0.538-0.217c-0.145-0.145-0.217-0.324-0.217-0.538V8.041h1.744c-0.165,0.52-0.247,1.06-0.247,1.62
    c0,1.584,0.577,2.934,1.731,4.051c1.155,1.118,2.545,1.677,4.169,1.677c1.072,0,2.062-0.256,2.97-0.768
    c0.906-0.511,1.624-1.205,2.152-2.084c0.527-0.879,0.791-1.837,0.791-2.876c0-0.561-0.083-1.101-0.248-1.62h1.671V16.057
    L16.849,16.057L16.849,16.057z M16.849,5.01c0,0.239-0.083,0.441-0.248,0.606s-0.366,0.247-0.606,0.247h-2.152
    c-0.238,0-0.44-0.082-0.605-0.247s-0.247-0.367-0.247-0.606V2.969c0-0.23,0.082-0.431,0.247-0.6s0.367-0.254,0.605-0.254h2.152
    c0.24,0,0.441,0.085,0.606,0.254s0.248,0.369,0.248,0.6V5.01z" />
    </g>
  </symbol>
</svg>
