<svg xmlns="http://www.w3.org/2000/svg" xmlns:xlink="http://www.w3.org/1999/xlink" x="0px" y="0px"
	 width="22px" height="13px" viewBox="0 0 22 13" enable-background="new 0 0 22 13" xml:space="preserve">
<path fill="#FFFFFF" d="M21.436,0.902c0.164-0.509,0-0.879-0.723-0.879h-2.399c-0.606,0-0.886,0.324-1.048,0.671
	c0,0-1.235,2.961-2.961,4.881c-0.559,0.555-0.814,0.739-1.117,0.739c-0.163,0-0.373-0.185-0.373-0.693V0.879
	C12.814,0.277,12.629,0,12.115,0H8.341C7.968,0,7.735,0.277,7.735,0.556c0,0.578,0.862,0.717,0.956,2.336v3.518
	c0,0.763-0.14,0.9-0.443,0.9c-0.816,0-2.796-2.983-3.984-6.384C4.031,0.255,3.797,0,3.191,0H0.769C0.07,0-0.047,0.324-0.047,0.671
	c0,0.625,0.815,3.771,3.797,7.935c1.98,2.844,4.8,4.371,7.34,4.371c1.538,0,1.724-0.348,1.724-0.924V9.901
	c0-0.694,0.14-0.81,0.629-0.81c0.35,0,0.979,0.185,2.398,1.548c1.632,1.621,1.911,2.36,2.82,2.36h2.4
	c0.698,0,1.025-0.347,0.839-1.018c-0.209-0.67-1.002-1.642-2.027-2.799c-0.56-0.647-1.397-1.365-1.654-1.711
	c-0.35-0.463-0.257-0.649,0-1.063C18.196,6.409,21.133,2.291,21.436,0.902"/>
</svg>
